<svg width="256" height="153" viewBox="0 0 256 153" fill="none" xmlns="http://www.w3.org/2000/svg">
<path d="M72.3925 55.4389C72.3925 58.5759 72.7325 61.1189 73.3255 62.9839C74.0784 65.0821 74.9849 67.1219 76.0375 69.0869C76.4615 69.7649 76.6305 70.4429 76.6305 71.0369C76.6305 71.8839 76.1225 72.7319 75.0205 73.5799L69.6805 77.1399C68.9175 77.6489 68.1545 77.9029 67.4755 77.9029C66.6285 77.9029 65.7805 77.4789 64.9325 76.7159C63.7894 75.4894 62.7676 74.1552 61.8815 72.7319C61.0335 71.2919 60.1855 69.6799 59.2535 67.7309C52.6408 75.5289 44.3335 79.4283 34.3315 79.4289C27.2115 79.4289 21.5315 77.3939 17.3775 73.3259C13.2245 69.2559 11.1055 63.8309 11.1055 57.0499C11.1055 49.8449 13.6485 43.9959 18.8195 39.5879C23.9895 35.1799 30.8565 32.9759 39.5875 32.9759C42.4695 32.9759 45.4365 33.2299 48.5725 33.6539C51.7095 34.0779 54.9305 34.7559 58.3215 35.5189V29.3309C58.3215 22.8879 56.9645 18.3959 54.3365 15.7679C51.6245 13.1399 47.0465 11.8679 40.5195 11.8679C37.5525 11.8679 34.5015 12.2079 31.3645 12.9709C28.2275 13.7339 25.1765 14.6659 22.2095 15.8529C20.8535 16.4459 19.8365 16.7849 19.2425 16.9549C18.6485 17.1249 18.2255 17.2089 17.8865 17.2089C16.6995 17.2089 16.1065 16.3609 16.1065 14.5809V10.4269C16.1065 9.07094 16.2765 8.05394 16.6995 7.46094C17.1235 6.86694 17.8865 6.27394 19.0735 5.68094C22.0401 4.15427 25.6001 2.8826 29.7535 1.86594C33.9085 0.763937 38.3165 0.255937 42.9785 0.255937C53.0665 0.255937 60.4415 2.54394 65.1885 7.12194C69.8505 11.6989 72.2245 18.6499 72.2245 27.9749V55.4389H72.3925ZM37.9765 68.3239C40.7745 68.3239 43.6565 67.8159 46.7075 66.7979C49.7595 65.7809 52.4725 63.9159 54.7605 61.3729C56.1175 59.7629 57.1345 57.9829 57.6425 55.9479C58.1515 53.9139 58.4905 51.4549 58.4905 48.5729V45.0129C55.9197 44.3877 53.316 43.9066 50.6915 43.5719C48.0487 43.2366 45.3875 43.0666 42.7235 43.0629C37.0435 43.0629 32.8905 44.1649 30.0935 46.4539C27.2965 48.7429 25.9395 51.9639 25.9395 56.2019C25.9395 60.1859 26.9565 63.1529 29.0755 65.1879C31.1105 67.3069 34.0775 68.3239 37.9765 68.3239ZM106.045 77.4789C104.519 77.4789 103.502 77.2249 102.824 76.6309C102.146 76.1229 101.552 74.9359 101.044 73.3259L81.1245 7.79994C80.6145 6.10394 80.3605 5.00194 80.3605 4.40894C80.3605 3.05294 81.0385 2.28894 82.3955 2.28894H90.7025C92.3125 2.28894 93.4155 2.54394 94.0085 3.13694C94.6865 3.64594 95.1955 4.83294 95.7035 6.44294L109.944 62.5599L123.168 6.44294C123.592 4.74794 124.101 3.64594 124.778 3.13694C125.457 2.62894 126.644 2.28994 128.17 2.28994H134.951C136.561 2.28994 137.664 2.54394 138.341 3.13694C139.02 3.64594 139.613 4.83294 139.952 6.44294L153.346 63.2379L168.01 6.44294C168.518 4.74794 169.112 3.64594 169.705 3.13694C170.383 2.62894 171.485 2.28994 173.011 2.28994H180.894C182.251 2.28994 183.014 2.96794 183.014 4.40894C183.014 4.83294 182.929 5.25694 182.844 5.76494C182.759 6.27294 182.59 6.95194 182.251 7.88494L161.821 73.4099C161.313 75.1059 160.72 76.2079 160.041 76.7159C159.363 77.2249 158.261 77.5639 156.821 77.5639H149.531C147.92 77.5639 146.818 77.3099 146.139 76.7159C145.461 76.1229 144.868 75.0209 144.529 73.3259L131.389 18.6499L118.335 73.2399C117.912 74.9359 117.403 76.0379 116.725 76.6309C116.047 77.2249 114.86 77.4789 113.335 77.4789H106.045ZM214.972 79.7679C210.564 79.7679 206.156 79.2589 201.918 78.2419C197.679 77.2249 194.374 76.1219 192.17 74.8519C190.813 74.0879 189.88 73.2409 189.542 72.4779C189.213 71.7296 189.04 70.9217 189.033 70.1039V65.7809C189.033 64.0009 189.711 63.1529 190.983 63.1529C191.503 63.1549 192.018 63.241 192.509 63.4079C193.017 63.5779 193.78 63.9159 194.628 64.2549C197.622 65.5726 200.748 66.5672 203.952 67.2219C207.273 67.8952 210.652 68.2359 214.04 68.2389C219.38 68.2389 223.534 67.3069 226.416 65.4419C229.298 63.5769 230.824 60.8649 230.824 57.3889C230.824 55.0159 230.061 53.0659 228.535 51.4549C227.009 49.8439 224.127 48.4039 219.974 47.0469L207.682 43.2329C201.494 41.2829 196.917 38.4009 194.119 34.5859C191.322 30.8559 189.881 26.7029 189.881 22.2949C189.881 18.7349 190.644 15.5983 192.17 12.8849C193.695 10.1729 195.73 7.79994 198.273 5.93494C200.816 3.98494 203.698 2.54394 207.089 1.52694C210.479 0.509938 214.039 0.0859375 217.769 0.0859375C219.634 0.0859375 221.584 0.170937 223.449 0.424937C225.399 0.678937 227.179 1.01794 228.959 1.35694C230.654 1.78094 232.265 2.20494 233.791 2.71394C235.317 3.22194 236.503 3.73027 237.351 4.23894C238.538 4.91794 239.385 5.59594 239.894 6.35894C240.403 7.03694 240.657 7.96927 240.657 9.15594V13.1399C240.657 14.9199 239.979 15.8529 238.707 15.8529C238.029 15.8529 236.927 15.5129 235.487 14.8349C230.654 12.6309 225.229 11.5289 219.211 11.5289C214.379 11.5289 210.564 12.2919 207.936 13.9029C205.309 15.5129 203.952 17.9719 203.952 21.4469C203.952 23.8209 204.8 25.8549 206.495 27.4659C208.19 29.0769 211.327 30.6869 215.82 32.1279L227.857 35.9429C233.96 37.8929 238.368 40.6049 240.996 44.0799C243.624 47.5549 244.896 51.5399 244.896 55.9479C244.896 59.5929 244.132 62.8989 242.691 65.7809C241.166 68.6629 239.131 71.2059 236.503 73.2409C233.875 75.3599 230.739 76.8859 227.094 77.9879C223.279 79.1749 219.295 79.7679 214.972 79.7679Z" fill="white"/>
<path d="M230.993 120.962C203.105 141.561 162.585 152.496 127.746 152.496C78.9188 152.496 34.9248 134.44 1.69578 104.432C-0.932222 102.059 1.44078 98.8383 4.57678 100.702C40.5188 121.556 84.8528 134.186 130.713 134.186C161.653 134.186 195.645 127.744 226.925 114.52C231.587 112.4 235.571 117.572 230.993 120.962ZM242.607 107.738C239.047 103.161 219.041 105.534 209.971 106.636C207.258 106.976 206.834 104.602 209.293 102.822C225.229 91.6323 251.423 94.8543 254.474 98.5833C257.526 102.398 253.626 128.591 238.707 141.137C236.419 143.087 234.215 142.07 235.232 139.527C238.622 131.134 246.167 112.231 242.607 107.738Z" fill="#FF9900"/>
</svg>
