<svg width="2815" height="751" viewBox="0 0 2815 751" fill="none" xmlns="http://www.w3.org/2000/svg">
<path d="M187.655 0.000167847V187.655H375.31V375.31H187.655V750.62H0V0.000167847H187.655ZM562.965 0.000167847V187.655H375.31V0.000167847H562.965ZM562.965 375.31V750.62H375.31V375.31H562.965ZM1125.93 0.000167847V187.655H938.274V0.000167847H1125.93ZM1125.93 375.31V562.965H1313.58V750.62H938.274V562.965H750.62V375.31H1125.93ZM1688.89 0.000167847V187.655H1876.55V375.31H1688.89V562.965H1501.24V0.000167847H1688.89ZM2064.2 562.965V750.62H1688.89V562.965H2064.2ZM2439.51 0.000167847V187.655H2627.17V375.31H2439.51V750.62H2251.86V0.000167847H2439.51ZM2814.82 375.31V750.62H2627.17V375.31H2814.82Z" fill="black"/>
</svg>
