<svg width="64" height="65" viewBox="0 0 64 65" fill="none" xmlns="http://www.w3.org/2000/svg">
<rect width="64" height="65" rx="10" fill="#37675E"/>
<g clip-path="url(#clip0_487_4)">
<path d="M53.9169 27.8318C54.486 26.1176 54.6829 24.3018 54.4943 22.5055C54.3056 20.7093 53.7359 18.9739 52.8232 17.4154C50.0464 12.582 44.4654 10.0957 39.0149 11.264C37.5058 9.58531 35.5814 8.33324 33.4353 7.63357C31.289 6.9339 28.9965 6.81125 26.788 7.27795C24.5794 7.74464 22.5325 8.78424 20.8529 10.2923C19.1732 11.8005 17.9199 13.724 17.2189 15.8697C15.4491 16.2326 13.7772 16.9692 12.3149 18.03C10.8526 19.0908 9.63351 20.4514 8.73914 22.0211C5.93218 26.8468 6.56948 32.9339 10.3148 37.0739C9.7436 38.7872 9.54477 40.6027 9.73167 42.3991C9.91857 44.1954 10.4869 45.9311 11.3986 47.4901C14.1789 52.3253 19.7634 54.8113 25.2169 53.6415C26.4159 54.9916 27.8891 56.0705 29.5382 56.806C31.1874 57.5415 32.9745 57.9168 34.7801 57.9066C40.3668 57.9116 45.3163 54.3051 47.0228 48.9854C48.7924 48.6218 50.4639 47.8851 51.9261 46.8243C53.3883 45.7636 54.6076 44.4032 55.5024 42.834C58.2754 38.0169 57.6356 31.9628 53.9169 27.8318ZM34.7801 54.5748C32.5502 54.5783 30.3902 53.7967 28.6788 52.3671L28.9799 52.1964L39.1151 46.3461C39.3673 46.1981 39.5767 45.9871 39.7228 45.7338C39.8688 45.4804 39.9465 45.1935 39.9482 44.9011V30.6113L44.2331 33.0899C44.2759 33.1116 44.3058 33.1526 44.3134 33.2003V45.0415C44.3024 50.302 40.0405 54.5638 34.7801 54.5748ZM14.2887 45.8243C13.1705 43.8933 12.7689 41.6298 13.1548 39.4319L13.4557 39.6125L23.6011 45.463C23.8521 45.6103 24.138 45.688 24.429 45.688C24.7201 45.688 25.0058 45.6103 25.2569 45.463L37.6501 38.3182V43.2653C37.6489 43.291 37.642 43.316 37.6298 43.3386C37.6177 43.3612 37.6006 43.3807 37.5798 43.3958L27.3142 49.3165C22.7522 51.9446 16.9239 50.3818 14.2887 45.8243ZM11.6193 23.7472C12.7454 21.8038 14.5228 20.3215 16.6369 19.5627V31.6046C16.6331 31.8955 16.7075 32.1822 16.8522 32.4346C16.9969 32.687 17.2067 32.8959 17.4598 33.0397L29.7928 40.1546L25.5077 42.6332C25.4846 42.6454 25.4587 42.6518 25.4325 42.6518C25.4063 42.6518 25.3805 42.6454 25.3573 42.6332L15.1116 36.7228C10.5587 34.0837 8.99728 28.2599 11.6193 23.6972V23.7472ZM46.8222 31.9259L34.4488 24.7408L38.724 22.2721C38.7472 22.2599 38.7731 22.2535 38.7993 22.2535C38.8256 22.2535 38.8515 22.2599 38.8746 22.2721L49.1204 28.1929C50.6869 29.0968 51.964 30.4277 52.8026 32.0303C53.6411 33.6327 54.0065 35.4407 53.856 37.2431C53.7056 39.0455 53.0455 40.7679 51.9528 42.2091C50.8602 43.6504 49.3801 44.7511 47.6853 45.3828V33.3407C47.6765 33.0503 47.5923 32.7672 47.441 32.5191C47.2897 32.271 47.0764 32.0666 46.8222 31.9259ZM51.087 25.5136L50.7859 25.3328L40.6606 19.4322C40.4081 19.2841 40.1206 19.2059 39.8278 19.2059C39.5349 19.2059 39.2475 19.2841 38.9949 19.4322L26.6115 26.5773V21.6302C26.609 21.605 26.6132 21.5796 26.6238 21.5567C26.6344 21.5337 26.6509 21.5141 26.6717 21.4997L36.9175 15.589C38.4877 14.6844 40.2831 14.2456 42.0936 14.3239C43.9042 14.4022 45.6549 14.9944 47.1412 16.0312C48.6275 17.0681 49.7879 18.5067 50.4866 20.1788C51.1853 21.8509 51.3935 23.6874 51.0868 25.4734L51.087 25.5136ZM24.2735 34.2841L19.9886 31.8154C19.9672 31.8025 19.9488 31.785 19.9349 31.7642C19.921 31.7434 19.9119 31.7198 19.9082 31.695V19.884C19.9105 18.0721 20.4287 16.2983 21.402 14.77C22.3753 13.2418 23.7635 12.0222 25.4045 11.2538C27.0454 10.4854 28.8712 10.2001 30.6682 10.4311C32.4654 10.6622 34.1595 11.4 35.5528 12.5584L35.2516 12.7291L25.1165 18.5794C24.8643 18.7274 24.6549 18.9385 24.5089 19.1917C24.3629 19.4451 24.2852 19.732 24.2836 20.0245L24.2735 34.2841ZM26.6015 29.2664L32.1209 26.0854L37.6501 29.2666V35.6287L32.1409 38.8099L26.6117 35.6287L26.6015 29.2664Z" fill="white"/>
</g>
<defs>
<clipPath id="clip0_487_4">
<rect width="50.2154" height="51" fill="white" transform="translate(7 7)"/>
</clipPath>
</defs>
</svg>
