<svg width="64" height="65" viewBox="0 0 64 65" fill="none" xmlns="http://www.w3.org/2000/svg">
<path d="M59.7961 26.5503C60.5214 24.3656 60.7723 22.0513 60.5319 19.7619C60.2915 17.4726 59.5654 15.2609 58.4021 13.2745C54.863 7.11428 47.75 3.94553 40.8033 5.43453C38.8799 3.295 36.4273 1.69923 33.692 0.807495C30.9566 -0.0842431 28.0348 -0.24056 25.22 0.354245C22.4051 0.94905 19.7963 2.27403 17.6556 4.19613C15.5148 6.11823 13.9175 8.56976 13.0241 11.3045C10.7685 11.7671 8.63766 12.7058 6.77391 14.0578C4.91016 15.4098 3.35643 17.144 2.21655 19.1445C-1.36095 25.295 -0.548699 33.053 4.2248 38.3295C3.49674 40.5131 3.24334 42.827 3.48154 45.1165C3.71974 47.4059 4.44406 49.6181 5.60605 51.605C9.14955 57.7675 16.2671 60.936 23.2176 59.445C24.7457 61.1658 26.6234 62.5408 28.7252 63.4782C30.8271 64.4156 33.1047 64.8939 35.406 64.881C42.5263 64.8873 48.8345 60.2908 51.0095 53.5108C53.2648 53.0474 55.3952 52.1084 57.2588 50.7565C59.1224 49.4046 60.6763 47.6708 61.8168 45.6708C65.351 39.5313 64.5356 31.8153 59.7961 26.5503ZM35.406 60.6345C32.564 60.639 29.811 59.6428 27.6298 57.8208L28.0136 57.6033L40.931 50.147C41.2525 49.9584 41.5193 49.6894 41.7055 49.3666C41.8916 49.0437 41.9906 48.678 41.9928 48.3053V30.0928L47.454 33.2518C47.5085 33.2795 47.5466 33.3318 47.5563 33.3925V48.4843C47.5423 55.1888 42.1105 60.6205 35.406 60.6345ZM9.28955 49.482C7.86433 47.0209 7.35258 44.136 7.8443 41.3348L8.2278 41.565L21.1583 49.0215C21.4782 49.2092 21.8425 49.3082 22.2134 49.3082C22.5844 49.3082 22.9486 49.2092 23.2686 49.0215L39.0638 39.9153V46.2205C39.0623 46.2532 39.0535 46.2851 39.038 46.3139C39.0225 46.3427 39.0008 46.3676 38.9743 46.3868L25.8906 53.9328C20.0763 57.2823 12.6481 55.2905 9.28955 49.482ZM5.8873 21.3445C7.32254 18.8676 9.58788 16.9784 12.2823 16.0113V31.3588C12.2775 31.7296 12.3723 32.0949 12.5567 32.4166C12.7412 32.7383 13.0086 33.0046 13.3311 33.1878L29.0496 42.2558L23.5883 45.4148C23.5588 45.4304 23.5258 45.4386 23.4924 45.4386C23.459 45.4386 23.4261 45.4304 23.3966 45.4148L10.3383 37.882C4.53555 34.5185 2.54555 27.096 5.8873 21.2808V21.3445ZM50.7538 31.7683L34.9838 22.6108L40.4325 19.4645C40.4621 19.4489 40.4951 19.4407 40.5285 19.4407C40.562 19.4407 40.595 19.4489 40.6245 19.4645L53.6828 27.0105C55.6794 28.1626 57.3071 29.8588 58.3758 31.9013C59.4445 33.9437 59.9102 36.248 59.7184 38.5451C59.5267 40.8423 58.6854 43.0375 57.2928 44.8744C55.9002 46.7113 54.0138 48.1142 51.8538 48.9193V33.5715C51.8426 33.2014 51.7353 32.8405 51.5424 32.5243C51.3496 32.2082 51.0778 31.9476 50.7538 31.7683ZM56.1893 23.5958L55.8055 23.3653L42.9008 15.845C42.5789 15.6562 42.2125 15.5566 41.8393 15.5566C41.4661 15.5566 41.0997 15.6562 40.7778 15.845L24.9951 24.9515V18.6463C24.9918 18.6142 24.9972 18.5819 25.0107 18.5527C25.0242 18.5234 25.0453 18.4983 25.0718 18.48L38.1301 10.9468C40.1314 9.79385 42.4196 9.23458 44.7271 9.3344C47.0347 9.43422 49.2661 10.189 51.1604 11.5104C53.0547 12.8319 54.5336 14.6654 55.4241 16.7965C56.3146 18.9276 56.5799 21.2682 56.189 23.5445L56.1893 23.5958ZM22.0153 34.7738L16.5541 31.6275C16.5268 31.611 16.5034 31.5887 16.4857 31.5622C16.468 31.5357 16.4563 31.5056 16.4516 31.474V16.4208C16.4546 14.1115 17.115 11.8508 18.3555 9.90299C19.596 7.95519 21.3653 6.40078 23.4567 5.4215C25.5481 4.44223 27.875 4.07856 30.1654 4.37301C32.4559 4.66746 34.6151 5.60787 36.3908 7.08428L36.007 7.30178L23.0896 14.758C22.7682 14.9467 22.5013 15.2157 22.3153 15.5385C22.1292 15.8614 22.0302 16.2271 22.0281 16.5998L22.0153 34.7738ZM24.9823 28.3788L32.0168 24.3245L39.0638 28.379V36.4875L32.0423 40.542L24.9953 36.4875L24.9823 28.3788Z" fill="white"/>
</svg>
